# xmcd CD database file
#
# Track frame offsets:
#	182
#	52010
#	84695
#	133480
#	175660
#
# Disc length: 2854 seconds
#
# Revision: 0
# Processed by: cddbd v1.5.2PL0 Copyright (c) Steve Scherf et al.
# Submitted via: CDex 1.70beta2
#
DISCID=440b2405
DTITLE=ODÉJY - Bill Evans - Time Rememnered
DYEAR=1991
DGENRE=Jazz
TTITLE0=Show Type Tune - Interplay
TTITLE1=One For Helen
TTITLE2=Turn Out The Stars - Peri's Cope
TTITLE3=Very Early
TTITLE4=Time Remembered
EXTD=YEAR: 1991
EXTT0=
EXTT1=
EXTT2=
EXTT3=
EXTT4=
PLAYORDER=
